<svg width="139" height="46" viewBox="0 0 139 46" fill="none" xmlns="http://www.w3.org/2000/svg">
<g clip-path="url(#clip0_6_51)">
<path fill-rule="evenodd" clip-rule="evenodd" d="M24.2858 8.67823C24.7279 8.65351 25.1714 8.66253 25.6122 8.70522L26.2193 8.745C26.4965 8.79331 26.7772 8.77626 27.0408 8.82527C27.3815 8.8885 27.7222 8.89631 28.0458 8.96308C28.5458 9.06537 29.0372 9.1222 29.5058 9.24296C30.2555 9.40649 30.9949 9.61404 31.72 9.86451C31.9965 9.97249 32.2715 10.0506 32.5415 10.1579C32.97 10.3277 33.3865 10.5237 33.7965 10.7041L34.2786 10.935L35.0243 11.3392C35.2886 11.4962 35.5493 11.6624 35.8058 11.823C36.3375 12.1702 36.8504 12.5453 37.3422 12.9467C37.5565 13.1165 37.7444 13.3268 37.9586 13.4973C38.1586 13.6585 38.3425 13.8386 38.5079 14.035L38.8387 14.3774L39.3786 15.0039C39.7429 15.4692 40.1023 15.9437 40.4237 16.4516C40.6079 16.7421 40.7752 17.0447 40.9508 17.3445C41.0395 17.4958 41.0936 17.6592 41.1786 17.8062C41.3835 18.1529 41.597 18.4903 41.8263 18.8142C42.2673 19.4372 42.7549 20.0069 43.2286 20.5951L44.0308 21.4695L44.1872 21.6208C44.3162 21.7775 44.4613 21.9203 44.6199 22.047L44.9729 22.3844C45.2921 22.6395 45.5827 22.925 45.9109 23.1751C46.1252 23.337 46.3323 23.5032 46.5538 23.6588L46.7541 23.8051L47.147 23.8314C47.4004 23.8696 47.6508 23.9229 47.897 23.9913C48.3587 24.1021 48.7812 24.3348 49.1207 24.6648C49.4602 24.9947 49.7038 25.4097 49.8256 25.8659C49.9545 26.3275 49.947 26.8164 49.8038 27.2738C49.2707 28.5084 46.8959 28.2292 45.5658 27.8868L44.9271 27.7313C44.5985 27.6332 44.2684 27.5437 43.9538 27.4294C43.8515 27.3799 43.7436 27.3441 43.6323 27.3228C43.5462 27.4523 43.4391 27.5663 43.315 27.6602C43.0774 27.8837 42.8169 28.0818 42.538 28.2512L41.4079 34.0562L41.247 34.9179C41.2263 35.1104 41.1951 35.3018 41.1538 35.4911C41.0331 35.9632 40.7583 36.3821 40.3722 36.6817C40.1289 36.8531 39.8519 36.9712 39.5594 37.0283C39.3493 37.0578 39.1368 37.0668 38.9252 37.0553H11.9115C11.1052 37.1564 10.2864 37.0525 9.53147 36.7534C9.17 36.5447 8.88989 36.2208 8.73647 35.8342C8.68835 35.68 8.65109 35.5226 8.62504 35.3633L8.42861 34.3908L7.50861 29.8737L7.27218 28.7059C7.25252 28.5293 7.21519 28.3551 7.16075 28.1859C7.07372 28.1394 6.99267 28.0826 6.91932 28.0168C6.63391 27.8232 6.38207 27.5847 6.17361 27.3107C5.86154 27.4382 5.54244 27.548 5.2179 27.6396C4.97647 27.7149 4.72718 27.7739 4.47218 27.8442C3.47217 28.1191 1.80503 28.3848 0.792169 27.9422C0.616481 27.8663 0.459966 27.7525 0.333958 27.609C0.20795 27.4655 0.115602 27.2959 0.0635985 27.1125C0.0399684 27.0086 0.0235016 26.9032 0.014313 26.7971C-0.00923819 26.6056 -0.00370026 26.4116 0.0307414 26.2218C0.0662699 25.9679 0.129746 25.7188 0.220027 25.4787C0.403959 25.088 0.676921 24.7452 1.01727 24.4776C1.35761 24.21 1.75597 24.0251 2.18074 23.9373C2.38669 23.8869 2.59536 23.8482 2.80574 23.8215L3.1186 23.8037L3.29717 23.6702C3.51574 23.5146 3.72146 23.3484 3.93147 23.1864C4.28218 22.9151 4.58861 22.5997 4.93147 22.3248L5.28432 21.9781C5.36579 21.9053 5.44327 21.8283 5.51647 21.7473L5.7529 21.5121C6.01647 21.1875 6.33575 20.9076 6.59718 20.5794C7.07432 19.9799 7.55575 19.3875 8.00361 18.7538C8.23861 18.4221 8.44147 18.0669 8.65147 17.7103L8.8479 17.2976L9.25432 16.5915C9.54432 16.1277 9.84932 15.6795 10.1743 15.2504L10.7593 14.5393L11.2643 13.9888L11.4158 13.8425C11.5104 13.7282 11.6167 13.6239 11.7329 13.5314C11.8879 13.407 12.0186 13.2522 12.175 13.1272C12.5065 12.8629 12.8179 12.5674 13.1665 12.3188C14.1975 11.5708 15.3054 10.9336 16.4715 10.4179C17.5514 9.95761 18.6669 9.58489 19.8072 9.30334C20.3329 9.17051 20.8786 9.09023 21.4279 8.97445C21.905 8.875 22.4072 8.86292 22.9058 8.7791L23.3615 8.73932L24.2858 8.67823ZM24.1072 10.1842C24.0216 10.2089 23.938 10.24 23.8572 10.2772C23.5149 10.5583 23.289 10.9552 23.2229 11.3918C23.1858 11.5381 23.1779 11.6958 23.1515 11.8535C23.1183 12.094 23.1229 12.3382 23.165 12.5773C23.2729 13.1726 23.4193 13.829 24.0136 13.927C24.1655 13.9134 24.3109 13.8597 24.435 13.7716C24.559 13.6834 24.6572 13.564 24.7193 13.4255C24.9397 12.996 25.0601 12.5228 25.0717 12.0408C25.0833 11.5588 24.9858 11.0804 24.7865 10.6409C24.7328 10.5055 24.6392 10.3894 24.518 10.3079C24.3967 10.2263 24.2535 10.1832 24.1072 10.1842ZM29.245 10.9038L29.08 10.9258C28.9632 10.9535 28.8545 11.0083 28.7629 11.0856C28.6559 11.2539 28.6042 11.4511 28.615 11.6499C28.6258 11.8487 28.6984 12.0393 28.8229 12.1952C29.2196 12.8135 29.8074 13.2871 30.4979 13.5448C30.6926 13.6384 30.9066 13.6855 31.1229 13.6824C31.3391 13.6793 31.5516 13.6261 31.7436 13.5271C32.1172 13.2337 31.8472 12.6171 31.6636 12.3365C31.3997 11.9276 31.0439 11.5853 30.6241 11.3366C30.2044 11.088 29.7323 10.9398 29.245 10.9038ZM19.0408 11.2504L18.8165 11.2717C18.669 11.2996 18.5242 11.3397 18.3836 11.3918C17.6953 11.6571 17.1129 12.1388 16.725 12.7635C16.5536 13.0433 16.3108 13.6521 16.6672 13.9313C16.8444 14.0278 17.0421 14.081 17.2441 14.0865C17.4461 14.0919 17.6464 14.0494 17.8286 13.9625C18.6039 13.68 19.2476 13.1238 19.6372 12.3998C19.8943 11.8158 19.7943 11.244 19.0386 11.2497L19.0408 11.2504ZM9.85075 28.9381L10.9936 34.5968H38.7993L38.9199 33.944L39.1113 32.9374L39.647 30.1479L39.8835 28.9353C39.6977 28.9347 39.512 28.9154 39.3301 28.8778C38.8763 28.8062 38.4327 28.6825 38.0079 28.5091C37.3635 28.7975 36.6956 29.0308 36.0115 29.2067C35.76 29.2706 35.5072 29.294 35.2343 29.3445C34.6622 29.4392 34.0781 29.4377 33.5065 29.3402C33.1816 29.2872 32.8619 29.2068 32.5508 29.1001C31.9882 28.885 31.4592 28.5918 30.9793 28.2292C30.7958 28.0914 30.6393 27.923 30.4615 27.781L30.2922 27.6098L29.1443 28.1695C28.6586 28.3826 28.1765 28.6043 27.6708 28.8046C27.2512 28.9627 26.8218 29.0933 26.385 29.1953C26.1293 29.2592 25.8508 29.2898 25.5679 29.3374L25.1886 29.3594H24.795L24.3215 29.3636L23.9065 29.3324C23.5878 29.2912 23.2718 29.2319 22.96 29.1548C22.4397 29.0059 21.9282 28.828 21.4279 28.622C21.0622 28.4672 20.7079 28.2811 20.3515 28.1248L19.2972 27.6098L19.0472 27.8627L18.815 28.0715L18.3593 28.4267C17.794 28.8218 17.1592 29.1081 16.4879 29.2706C15.2521 29.5073 13.9743 29.395 12.7993 28.9467L12.0622 28.6625L11.7186 28.507L11.1958 28.698C10.7613 28.8453 10.3067 28.9253 9.8479 28.9353L9.85075 28.9381Z" fill="url(#paint0_linear_6_51)"/>
</g>
<path d="M69.52 30.692V15.908H73.648V30.692H69.52ZM63.984 25.252V21.348H79.216V25.252H63.984Z" fill="#00DC82"/>
<g clip-path="url(#clip1_6_51)">
<path d="M119.245 37.7H135.974C136.505 37.7001 137.027 37.5642 137.487 37.3062C137.947 37.0481 138.329 36.6769 138.595 36.23C138.861 35.7829 139 35.2759 139 34.7599C139 34.2438 138.86 33.7369 138.594 33.2901L127.359 14.3902C127.094 13.9433 126.712 13.5722 126.252 13.3141C125.792 13.0562 125.27 12.9203 124.739 12.9203C124.207 12.9203 123.686 13.0562 123.226 13.3141C122.765 13.5722 122.383 13.9433 122.118 14.3902L119.245 19.226L113.629 9.76968C113.363 9.32284 112.981 8.95177 112.521 8.69378C112.061 8.43585 111.539 8.30002 111.008 8.30002C110.476 8.30002 109.954 8.43585 109.494 8.69378C109.034 8.95177 108.652 9.32284 108.386 9.76968L94.4063 33.2901C94.1404 33.7369 94.0002 34.2438 94 34.7599C93.9998 35.2759 94.1395 35.7829 94.405 36.23C94.6706 36.6769 95.0526 37.0481 95.5128 37.3062C95.9729 37.5642 96.4949 37.7001 97.0262 37.7H107.527C111.687 37.7 114.756 35.925 116.867 32.462L121.992 23.8401L124.738 19.226L132.977 33.0859H121.992L119.245 37.7ZM107.356 33.0811L100.028 33.0795L111.012 14.6007L116.493 23.8401L112.824 30.0156C111.422 32.2625 109.829 33.0811 107.356 33.0811Z" fill="#00DC82"/>
</g>
<defs>
<linearGradient id="paint0_linear_6_51" x1="17.3865" y1="8.68818" x2="32.4241" y2="37.1263" gradientUnits="userSpaceOnUse">
<stop stop-color="#00DC82"/>
<stop offset="1" stop-color="#05C677"/>
</linearGradient>
<clipPath id="clip0_6_51">
<rect width="50" height="28.7879" fill="white" transform="translate(0 8.60605)"/>
</clipPath>
<clipPath id="clip1_6_51">
<rect width="45" height="44.1" fill="white" transform="translate(94 0.950012)"/>
</clipPath>
</defs>
</svg>
